<svg xmlns="http://www.w3.org/2000/svg" height="800" width="1200" version="1.0" viewBox="-106.29915 -85.19075 921.2593 511.1445"><defs><clipPath id="a"><path d="M258.72 57.651h112.77v61.399H258.72z"/></clipPath></defs><g clip-path="url(#a)" transform="matrix(8.45639 0 0 -8.45639 -2214.626 963.713)" font-size="26" font-family="fnt0" letter-spacing="0" word-spacing="0" fill="#fff"><path d="M281.83 98.746h-2.8v1.197H279c-.49-1.037-1.47-1.314-2.98-1.314-1.73 0-4.16.073-4.16 3.281v4.28h2.81v-4.28c0-.73.58-1.09 1.81-1.09h.64c1.2 0 1.91.55 1.91 1.62v3.75h2.8zm1.4 7.444h2.81v-1.2h.03c.49 1.04 1.47 1.32 2.98 1.32 1.73 0 4.16-.07 4.16-3.29v-4.274h-2.81v4.274c0 .73-.58 1.1-1.81 1.1h-.64c-1.2 0-1.91-.56-1.91-1.62v-3.754h-2.81zm14.21-7.444h-2.8v7.444h2.8zm2.1 5.434h-1.4v2.01h1.4v1.75h2.81v-1.75h4.35v-2.01h-4.35v-2.86c0-.56.4-.68 1.07-.68.91 0 1.16.21 1.16.89v.5h2.45v-.91c0-1.411-.93-2.491-3.17-2.491h-1.11c-1.72 0-3.21.54-3.21 2.601zm8.06-1.3c0 2.81 1.4 3.43 3.45 3.43H313c2.98 0 4.21-.63 4.21-3.21v-1.26h-6.81v-.45c0-.79.56-1.01 1.73-1.01h.86c1.52 0 1.59.41 1.59.85h2.63v-.32c0-1.872-1.67-2.281-3.7-2.281h-2.1c-1.85 0-3.81.35-3.81 3.531zm6.89.63c0 .89-.41 1.05-2.04 1.05-1.83 0-2.05-.16-2.05-1.05zm3.45-.37c0 1.9.44 3.17 3.98 3.17h.84c1.15 0 2.33-.32 2.51-1.49h.02v4.5h2.81V98.746h-2.63v1.374h-.03c-.31-.922-1.01-1.491-2.7-1.491h-.82c-3.54 0-3.98 1.27-3.98 3.171zm2.71-1.11c0-.83.13-1.3 1.48-1.3h1.65c1.11 0 1.69.25 1.69 1.37v.73c0 1.13-.58 1.38-1.69 1.38h-1.65c-1.35 0-1.48-.47-1.48-1.3zm-44.31-9.039h2.81v-1.197h.03c.49 1.037 1.47 1.314 2.97 1.314 1.74 0 4.16-.073 4.16-3.285v-4.277h-2.8v4.277c0 .73-.58 1.095-1.81 1.095h-.64c-1.2 0-1.91-.555-1.91-1.62v-3.752h-2.81zm11.92-2.014h-1.41v2.014h1.41v1.752h2.8v-1.752h4.35v-2.014h-4.35v-2.862c0-.555.41-.672 1.08-.672.9 0 1.15.205 1.15.891v.496h2.46v-.905c0-1.416-.94-2.496-3.17-2.496h-1.11c-1.72 0-3.21.54-3.21 2.598zm8.06-1.3c0 2.818 1.4 3.431 3.44 3.431h1.96c2.97 0 4.2-.628 4.2-3.212v-1.255h-6.8v-.453c0-.788.55-1.007 1.72-1.007h.86c1.52 0 1.59.408 1.59.846h2.63v-.321c0-1.868-1.66-2.277-3.69-2.277h-2.1c-1.86 0-3.81.35-3.81 3.533zm6.89.628c0 .891-.41 1.051-2.05 1.051-1.82 0-2.04-.16-2.04-1.051zm3.63 2.686h2.63v-1.416h.03c.32 1.183 1.46 1.533 2.73 1.533 2.04 0 2.84-.876 2.84-2.934 0-.19-.01-.395-.02-.657h-2.43c0 .949-.22 1.401-1.34 1.401-.96 0-1.64-.365-1.64-1.255v-4.117h-2.8zm9.08 0h2.8v-1.197h.03c.5 1.037 1.48 1.314 2.98 1.314 1.74 0 4.16-.073 4.16-3.285v-4.277h-2.8v4.277c0 .73-.58 1.095-1.81 1.095h-.64c-1.2 0-1.92-.555-1.92-1.62v-3.752h-2.8zm10.89-3.314c0 2.818 1.4 3.431 3.45 3.431h1.95c2.98 0 4.21-.628 4.21-3.212v-1.255h-6.8v-.453c0-.788.55-1.007 1.72-1.007h.86c1.52 0 1.59.408 1.59.846h2.63v-.321c0-1.868-1.66-2.277-3.7-2.277h-2.1c-1.85 0-3.81.35-3.81 3.533zm6.89.628c0 .891-.41 1.051-2.04 1.051-1.83 0-2.04-.16-2.04-1.051zm4.5.672h-1.4v2.014h1.4v1.752h2.8v-1.752h4.35v-2.014H341v-2.862c0-.555.41-.672 1.08-.672.91 0 1.16.205 1.16.891v.496h2.45v-.905c0-1.416-.93-2.496-3.17-2.496h-1.11c-1.72 0-3.21.54-3.21 2.598z" fill="#000"/><path d="M315.14 86.454c-3.64-2.121-7.7-4.123-12.07-5.893-14.33-5.802-28.76-7.671-35.92-4.651-2.08.879-3.46 2.13-4.08 3.717-1.69 4.282 2.24 10.291 9.68 16.096v.982a51.681 51.681 0 01-3.79-3.184c-5.77-5.367-8.12-10.402-6.64-14.178.71-1.791 2.22-3.189 4.51-4.156 7.46-3.146 21.8-1.322 36.54 4.647a95.483 95.483 0 0111.77 5.708z" fill="#b1b2b4"/><path d="M274.91 85.541h-2.81v7.446h2.81z" fill="#000"/><path d="M274.89 94.358h-2.76v2.76h2.76z" fill="#e2002f"/><path d="M333.46 108.21c-.7 1.81-2.22 3.23-4.51 4.21-6.69 2.86-18.9 1.67-31.97-2.96v-.86c12.85 4.58 25.21 5.84 31.65 3.09 2.09-.89 3.46-2.16 4.08-3.77 1.53-3.93-1.55-9.297-7.68-14.646.14-.069.28-.162.4-.278.06-.058.14-.129.22-.212.39.349.8.712 1.17 1.059 5.77 5.438 8.12 10.537 6.64 14.367" fill="#b1b2b4"/><path d="M297.43 107.56h-2.76v2.76h2.76z" fill="#e2002f"/></g></svg>